<?xml version="1.0" encoding="UTF-8"?>
<svg version="1.1" xmlns="http://www.w3.org/2000/svg" width="256" height="256">
<path d="M0 0 C84.48 0 168.96 0 256 0 C256 84.48 256 168.96 256 256 C171.52 256 87.04 256 0 256 C0 171.52 0 87.04 0 0 Z " fill="#FCFCFC" transform="translate(0,0)"/>
<path d="M0 0 C0.70125 0.00515625 1.4025 0.0103125 2.125 0.015625 C2.82625 0.01046875 3.5275 0.0053125 4.25 0 C6.125 0.265625 6.125 0.265625 8.125 2.265625 C8.32315184 4.69392561 8.39783267 7.00816519 8.38378906 9.4375 C8.3872937 10.17585083 8.39079834 10.91420166 8.39440918 11.67492676 C8.40323049 14.12192108 8.39737604 16.5686276 8.390625 19.015625 C8.39197154 20.71191463 8.39391197 22.40820388 8.39642334 24.10449219 C8.39937514 27.6621467 8.39507519 31.21970088 8.38574219 34.77734375 C8.37434759 39.34413641 8.38090677 43.910694 8.39288712 48.47747803 C8.40010422 51.98097514 8.39781848 55.48441626 8.39263153 58.98791504 C8.39129462 60.67207873 8.3929442 62.35624746 8.39759064 64.04040527 C8.40265347 66.39165774 8.39494933 68.74252623 8.38378906 71.09375 C8.38783752 71.79407349 8.39188599 72.49439697 8.39605713 73.21594238 C8.35352915 78.03709585 8.35352915 78.03709585 6.125 80.265625 C4.25 80.53125 4.25 80.53125 2.125 80.515625 C1.42375 80.52078125 0.7225 80.5259375 0 80.53125 C-1.875 80.265625 -1.875 80.265625 -3.875 78.265625 C-4.07315184 75.83732439 -4.14783267 73.52308481 -4.13378906 71.09375 C-4.1372937 70.35539917 -4.14079834 69.61704834 -4.14440918 68.85632324 C-4.15323049 66.40932892 -4.14737604 63.9626224 -4.140625 61.515625 C-4.14197154 59.81933537 -4.14391197 58.12304612 -4.14642334 56.42675781 C-4.14937514 52.8691033 -4.14507519 49.31154912 -4.13574219 45.75390625 C-4.12434759 41.18711359 -4.13090677 36.620556 -4.14288712 32.05377197 C-4.15010422 28.55027486 -4.14781848 25.04683374 -4.14263153 21.54333496 C-4.14129462 19.85917127 -4.1429442 18.17500254 -4.14759064 16.49084473 C-4.15265347 14.13959226 -4.14494933 11.78872377 -4.13378906 9.4375 C-4.13783752 8.73717651 -4.14188599 8.03685303 -4.14605713 7.31530762 C-4.08663482 0.57893993 -4.08663482 0.57893993 0 0 Z " fill="#272727" transform="translate(141.875,79.734375)"/>
<path d="M0 0 C3.5 0.25 3.5 0.25 5.5 2.25 C5.69819282 4.70842922 5.77281958 7.05419599 5.75878906 9.51367188 C5.7622937 10.26177628 5.76579834 11.00988068 5.76940918 11.78065491 C5.7782309 14.26011359 5.77237589 16.73928828 5.765625 19.21875 C5.76697153 20.93745987 5.76891195 22.65616937 5.77142334 24.37487793 C5.7743752 27.9796104 5.77007501 31.58424386 5.76074219 35.18896484 C5.74934759 39.8162906 5.75590674 44.44338436 5.76788712 49.0707016 C5.77510407 52.62052162 5.77281855 56.17028637 5.76763153 59.72010803 C5.76629458 61.42660042 5.76794435 63.13309777 5.77259064 64.83958435 C5.77765322 67.22196805 5.76994966 69.60397275 5.75878906 71.98632812 C5.76283752 72.69600235 5.76688599 73.40567657 5.77105713 74.13685608 C5.72852906 79.02147094 5.72852906 79.02147094 3.5 81.25 C-0.55261287 81.59490322 -2.04754176 81.55163882 -5.5 79.25 C-5.79729242 76.74733727 -5.89929353 74.49117043 -5.87231445 71.98632812 C-5.87596512 71.23822372 -5.87961578 70.49011932 -5.88337708 69.71934509 C-5.89150112 67.23975108 -5.87785759 64.76080679 -5.86328125 62.28125 C-5.86276286 60.56254069 -5.86327973 58.84383079 -5.86479187 57.12512207 C-5.86470206 53.52033658 -5.85425566 49.91577434 -5.83618164 46.31103516 C-5.81349411 41.6836942 -5.81294944 37.05667966 -5.81969929 32.4292984 C-5.82303621 28.87946659 -5.81641442 25.3297096 -5.80657005 21.77989197 C-5.80271298 20.07340384 -5.80157193 18.3669074 -5.8031559 16.66041565 C-5.80352558 14.27800561 -5.79093402 11.89601856 -5.7746582 9.51367188 C-5.77713562 8.80399765 -5.77961304 8.09432343 -5.78216553 7.36314392 C-5.7264326 2.26760134 -5.52298765 0.39449912 0 0 Z " fill="#272727" transform="translate(106.5,116.75)"/>
<path d="M0 0 C2.44525409 2.44525409 2.24199964 3.77570996 2.27105713 7.11314392 C2.26700867 7.82281815 2.26296021 8.53249237 2.25878906 9.26367188 C2.2622937 10.01177628 2.26579834 10.75988068 2.26940918 11.53065491 C2.2782309 14.01011359 2.27237589 16.48928828 2.265625 18.96875 C2.26697153 20.68745987 2.26891195 22.40616937 2.27142334 24.12487793 C2.2743752 27.7296104 2.27007501 31.33424386 2.26074219 34.93896484 C2.24934759 39.5662906 2.25590674 44.19338436 2.26788712 48.8207016 C2.27510407 52.37052162 2.27281855 55.92028637 2.26763153 59.47010803 C2.26629458 61.17660042 2.26794435 62.88309777 2.27259064 64.58958435 C2.27765322 66.97196805 2.26994966 69.35397275 2.25878906 71.73632812 C2.26283752 72.44600235 2.26688599 73.15567657 2.27105713 73.88685608 C2.22852906 78.77147094 2.22852906 78.77147094 0 81 C-3.5 81.25 -3.5 81.25 -7 81 C-9.44339328 78.55660672 -9.24568367 77.22231457 -9.28216553 73.88685608 C-9.2784494 72.82234474 -9.2784494 72.82234474 -9.2746582 71.73632812 C-9.27976913 70.98822372 -9.28488007 70.24011932 -9.29014587 69.46934509 C-9.3040765 66.9898993 -9.30308271 64.51073034 -9.30078125 62.03125 C-9.30466595 60.31253963 -9.30900015 58.59383022 -9.31376648 56.87512207 C-9.32123592 53.27039479 -9.32093196 49.66576544 -9.31567383 46.06103516 C-9.3098747 41.43363431 -9.32681722 36.80663313 -9.3500185 32.1792984 C-9.36472401 28.62947228 -9.36563197 25.07974315 -9.36250877 21.52989197 C-9.36302348 19.8233918 -9.36828902 18.11688641 -9.37832069 16.41041565 C-9.39060814 14.02790054 -9.38394079 11.64617363 -9.37231445 9.26367188 C-9.37995819 8.55399765 -9.38760193 7.84432343 -9.39547729 7.11314392 C-9.3742218 5.15026855 -9.3742218 5.15026855 -9 2 C-5.54754176 -0.30163882 -4.05261287 -0.34490322 0 0 Z " fill="#272727" transform="translate(190,58)"/>
<path d="M0 0 C2.44525409 2.44525409 2.24199964 3.77570996 2.27105713 7.11314392 C2.26700867 7.82281815 2.26296021 8.53249237 2.25878906 9.26367188 C2.2622937 10.01177628 2.26579834 10.75988068 2.26940918 11.53065491 C2.2782309 14.01011359 2.27237589 16.48928828 2.265625 18.96875 C2.26697153 20.68745987 2.26891195 22.40616937 2.27142334 24.12487793 C2.2743752 27.7296104 2.27007501 31.33424386 2.26074219 34.93896484 C2.24934759 39.5662906 2.25590674 44.19338436 2.26788712 48.8207016 C2.27510407 52.37052162 2.27281855 55.92028637 2.26763153 59.47010803 C2.26629458 61.17660042 2.26794435 62.88309777 2.27259064 64.58958435 C2.27765322 66.97196805 2.26994966 69.35397275 2.25878906 71.73632812 C2.26283752 72.44600235 2.26688599 73.15567657 2.27105713 73.88685608 C2.22852906 78.77147094 2.22852906 78.77147094 0 81 C-3.5 81.25 -3.5 81.25 -7 81 C-9.44339328 78.55660672 -9.24568367 77.22231457 -9.28216553 73.88685608 C-9.2784494 72.82234474 -9.2784494 72.82234474 -9.2746582 71.73632812 C-9.27976913 70.98822372 -9.28488007 70.24011932 -9.29014587 69.46934509 C-9.3040765 66.9898993 -9.30308271 64.51073034 -9.30078125 62.03125 C-9.30466595 60.31253963 -9.30900015 58.59383022 -9.31376648 56.87512207 C-9.32123592 53.27039479 -9.32093196 49.66576544 -9.31567383 46.06103516 C-9.3098747 41.43363431 -9.32681722 36.80663313 -9.3500185 32.1792984 C-9.36472401 28.62947228 -9.36563197 25.07974315 -9.36250877 21.52989197 C-9.36302348 19.8233918 -9.36828902 18.11688641 -9.37832069 16.41041565 C-9.39060814 14.02790054 -9.38394079 11.64617363 -9.37231445 9.26367188 C-9.37995819 8.55399765 -9.38760193 7.84432343 -9.39547729 7.11314392 C-9.3742218 5.15026855 -9.3742218 5.15026855 -9 2 C-5.54754176 -0.30163882 -4.05261287 -0.34490322 0 0 Z " fill="#272727" transform="translate(30,58)"/>
<path d="M0 0 C1.91015625 0.23046875 1.91015625 0.23046875 3.91015625 2.23046875 C4.10830809 4.65876936 4.18298892 6.97300894 4.16894531 9.40234375 C4.17244995 10.14069458 4.17595459 10.87904541 4.17956543 11.63977051 C4.18838674 14.08676483 4.18253229 16.53347135 4.17578125 18.98046875 C4.17712779 20.67675838 4.17906822 22.37304763 4.18157959 24.06933594 C4.18453139 27.62699045 4.18023144 31.18454463 4.17089844 34.7421875 C4.15950384 39.30898016 4.16606302 43.87553775 4.17804337 48.44232178 C4.18526047 51.94581889 4.18297473 55.44926001 4.17778778 58.95275879 C4.17645087 60.63692248 4.17810045 62.32109121 4.18274689 64.00524902 C4.18780972 66.35650149 4.18010558 68.70736998 4.16894531 71.05859375 C4.17299377 71.75891724 4.17704224 72.45924072 4.18121338 73.18078613 C4.1386854 78.0019396 4.1386854 78.0019396 1.91015625 80.23046875 C-0.80439331 80.55799109 -3.34215134 80.36131125 -6.08984375 80.23046875 C-7.78383755 78.53647495 -7.21565955 76.42754437 -7.22537231 74.16717529 C-7.22334808 73.44298401 -7.22132385 72.71879272 -7.21923828 71.97265625 C-7.2209906 71.21333801 -7.22274292 70.45401978 -7.22454834 69.67169189 C-7.22896705 67.14959459 -7.22602881 64.62756682 -7.22265625 62.10546875 C-7.22332928 60.36051419 -7.2242993 58.61555971 -7.22555542 56.87060547 C-7.22703242 53.2086498 -7.22487778 49.54671847 -7.22021484 45.88476562 C-7.21451755 41.18002383 -7.21779655 36.47533907 -7.22378731 31.77059937 C-7.22739287 28.16592984 -7.22625436 24.56127393 -7.22365952 20.956604 C-7.22299023 19.22137444 -7.22381871 17.48614366 -7.22613907 15.75091553 C-7.22866552 13.33000388 -7.22482513 10.90918589 -7.21923828 8.48828125 C-7.22126251 7.76408997 -7.22328674 7.03989868 -7.22537231 6.29376221 C-7.19757092 -0.1762191 -6.4225106 0.12821709 0 0 Z " fill="#272727" transform="translate(231.08984375,79.76953125)"/>
<path d="M0 0 C1.91015625 0.23046875 1.91015625 0.23046875 3.91015625 2.23046875 C4.10830809 4.65876936 4.18298892 6.97300894 4.16894531 9.40234375 C4.17244995 10.14069458 4.17595459 10.87904541 4.17956543 11.63977051 C4.18838674 14.08676483 4.18253229 16.53347135 4.17578125 18.98046875 C4.17712779 20.67675838 4.17906822 22.37304763 4.18157959 24.06933594 C4.18453139 27.62699045 4.18023144 31.18454463 4.17089844 34.7421875 C4.15950384 39.30898016 4.16606302 43.87553775 4.17804337 48.44232178 C4.18526047 51.94581889 4.18297473 55.44926001 4.17778778 58.95275879 C4.17645087 60.63692248 4.17810045 62.32109121 4.18274689 64.00524902 C4.18780972 66.35650149 4.18010558 68.70736998 4.16894531 71.05859375 C4.17299377 71.75891724 4.17704224 72.45924072 4.18121338 73.18078613 C4.1386854 78.0019396 4.1386854 78.0019396 1.91015625 80.23046875 C-0.80439331 80.55799109 -3.34215134 80.36131125 -6.08984375 80.23046875 C-7.78383755 78.53647495 -7.21565955 76.42754437 -7.22537231 74.16717529 C-7.22334808 73.44298401 -7.22132385 72.71879272 -7.21923828 71.97265625 C-7.2209906 71.21333801 -7.22274292 70.45401978 -7.22454834 69.67169189 C-7.22896705 67.14959459 -7.22602881 64.62756682 -7.22265625 62.10546875 C-7.22332928 60.36051419 -7.2242993 58.61555971 -7.22555542 56.87060547 C-7.22703242 53.2086498 -7.22487778 49.54671847 -7.22021484 45.88476562 C-7.21451755 41.18002383 -7.21779655 36.47533907 -7.22378731 31.77059937 C-7.22739287 28.16592984 -7.22625436 24.56127393 -7.22365952 20.956604 C-7.22299023 19.22137444 -7.22381871 17.48614366 -7.22613907 15.75091553 C-7.22866552 13.33000388 -7.22482513 10.90918589 -7.21923828 8.48828125 C-7.22126251 7.76408997 -7.22328674 7.03989868 -7.22537231 6.29376221 C-7.19757092 -0.1762191 -6.4225106 0.12821709 0 0 Z " fill="#272727" transform="translate(71.08984375,79.76953125)"/>
</svg>
